<?xml version="1.0" encoding="UTF-8" standalone="no"?>
<!-- Created with Inkscape (http://www.inkscape.org/) -->

<svg
   xmlns:dc="http://purl.org/dc/elements/1.1/"
   xmlns:cc="http://creativecommons.org/ns#"
   xmlns:rdf="http://www.w3.org/1999/02/22-rdf-syntax-ns#"
   xmlns:svg="http://www.w3.org/2000/svg"
   xmlns="http://www.w3.org/2000/svg"
   xmlns:sodipodi="http://sodipodi.sourceforge.net/DTD/sodipodi-0.dtd"
   xmlns:inkscape="http://www.inkscape.org/namespaces/inkscape"
   width="212.84564"
   height="42.857864"
   id="svg2"
   version="1.1"
   inkscape:version="0.48.1 r9760"
   sodipodi:docname="logo.svg">
  <defs
     id="defs4" />
  <sodipodi:namedview
     id="base"
     pagecolor="#ffffff"
     bordercolor="#666666"
     borderopacity="1.0"
     inkscape:pageopacity="0.0"
     inkscape:pageshadow="2"
     inkscape:zoom="2.8"
     inkscape:cx="85.50394"
     inkscape:cy="32.999375"
     inkscape:document-units="px"
     inkscape:current-layer="g3837"
     showgrid="false"
     showguides="true"
     inkscape:guide-bbox="true"
     fit-margin-top="0"
     fit-margin-left="0"
     fit-margin-right="0"
     fit-margin-bottom="0"
     inkscape:window-width="1366"
     inkscape:window-height="711"
     inkscape:window-x="0"
     inkscape:window-y="25"
     inkscape:window-maximized="1">
    <sodipodi:guide
       orientation="1,0"
       position="-46.143434,47.010878"
       id="guide4237" />
  </sodipodi:namedview>
  <metadata
     id="metadata7">
    <rdf:RDF>
      <cc:Work
         rdf:about="">
        <dc:format>image/svg+xml</dc:format>
        <dc:type
           rdf:resource="http://purl.org/dc/dcmitype/StillImage" />
      </cc:Work>
    </rdf:RDF>
  </metadata>
  <g
     id="g3837"
     inkscape:groupmode="layer"
     inkscape:label="Layer 1 copy"
     style="display:inline"
     transform="translate(-38.286291,-778.30091)">
    <g
       transform="translate(16.162918,-7.5569522)"
       style="fill:#2863a1;fill-opacity:1"
       id="g3839">
      <g
         id="g3841">
        <g
           style="font-size:40px;font-style:normal;font-variant:normal;font-weight:normal;font-stretch:normal;line-height:125%;letter-spacing:0px;word-spacing:0px;fill:#2863a1;fill-opacity:1;stroke:none;font-family:Overlock;-inkscape-font-specification:Overlock"
           id="text3843" />
        <g
           style="font-size:40px;font-style:normal;font-variant:normal;font-weight:normal;font-stretch:normal;line-height:125%;letter-spacing:0px;word-spacing:0px;fill:#2863a1;fill-opacity:1;stroke:none;font-family:Overlock;-inkscape-font-specification:Overlock"
           id="text3847" />
      </g>
    </g>
    <g
       id="g3761"
       style="fill:#ffffff;fill-opacity:1;display:inline"
       transform="translate(15.410542,-7.1766836)">
      <g
         id="g3831"
         style="fill:#ffffff;fill-opacity:1">
        <g
           style="font-size:40px;font-style:normal;font-variant:normal;font-weight:normal;font-stretch:normal;line-height:125%;letter-spacing:0px;word-spacing:0px;fill:#ffffff;stroke:none;font-family:Overlock;-inkscape-font-specification:Overlock"
           id="text2985" />
        <g
           style="font-size:40px;font-style:normal;font-variant:normal;font-weight:normal;font-stretch:normal;line-height:125%;letter-spacing:0px;word-spacing:0px;fill:#ffffff;stroke:none;font-family:Overlock;-inkscape-font-specification:Overlock"
           id="text2989">
          <path
             id="path4299"
             style="fill:#2863a1;fill-opacity:1"
             d="M 122.65625 785.71875 C 119.44992 786.02539 116.56956 787.98119 114.6875 790.53125 C 113.29591 791.66928 111.35514 791.52758 109.66734 791.43353 C 107.66186 791.23355 105.64009 791.13567 103.6365 791.4143 C 101.01686 791.69672 98.477861 792.46 95.912547 793.02416 C 92.324818 793.53461 88.906429 792.02878 85.394591 791.60994 C 79.102217 790.85119 72.750076 790.94976 66.42532 790.72912 C 64.153797 790.67583 61.889131 790.46227 59.625 790.28125 C 58.182258 789.83055 56.641694 789.88053 55.211558 789.37455 C 52.637876 788.6309 50.054232 787.9213 47.46875 787.21875 C 46.495978 787.40452 45.397429 787.5076 44.551259 787.09313 C 43.632349 786.81016 42.703002 787.38003 41.78125 787.4375 C 40.842877 787.06194 40.055734 787.74806 39.140699 787.90622 C 38.222349 788.08918 37.366493 788.13955 36.525015 788.58593 C 35.715248 788.95381 34.702701 788.84264 34.0625 789.5625 C 33.276054 790.27355 32.348443 790.78616 31.41533 791.26469 C 30.649619 791.84278 29.852423 792.37827 29.292975 793.17473 C 28.665589 794.01903 27.740876 794.59871 27.218447 795.53176 C 26.582539 796.56494 26.05628 797.65693 25.392217 798.66729 C 24.682875 799.95028 24.494614 801.46792 23.65625 802.6875 C 23.093506 804.02451 23.503444 805.49917 23.231598 806.88992 C 22.998602 809.23056 23.550574 811.53499 24 813.8125 C 24.354748 814.69481 24.861254 815.50435 25.226008 816.38952 C 26.348094 818.80454 28.248989 820.78322 30.369052 822.35406 C 32.905447 824.26238 35.965217 825.38069 39.097725 825.79869 C 42.049083 826.24627 45.094228 826.42051 48.03125 825.78125 C 51.10789 825.14421 53.635972 822.81994 56.84375 822.6875 C 60.581549 822.82126 64.313969 823.35317 68.060339 823.11841 C 75.628765 822.91599 83.19207 822.51871 90.743979 821.98748 C 94.031825 821.65348 97.334658 821.11289 100.64658 821.45197 C 104.81276 821.58327 108.98667 821.92254 113.15146 821.58766 C 115.66065 821.53199 118.24663 821.25946 120.67845 822.03966 C 123.59388 822.71545 126.59518 823.18985 129.59375 822.90625 C 132.16228 822.77651 134.74305 822.9689 137.26125 823.48662 C 139.7333 823.83782 142.21421 823.37423 144.625 822.84375 C 145.97064 822.59303 147.34042 822.52153 148.69793 822.71094 C 151.84709 822.94436 155.04316 823.60401 158.18057 822.90899 C 161.31241 822.47969 164.42512 821.31238 167.61959 821.79738 C 171.02533 822.10871 174.54992 822.49524 177.87441 821.45532 C 179.62246 820.99031 181.34617 820.43749 183.09375 819.96875 C 184.20596 820.0003 184.57125 821.27201 184.8125 822.15625 C 185.63174 824.35709 187.65451 826.05661 189.95439 826.49761 C 191.72289 826.88773 193.51748 826.2265 194.92921 825.17219 C 196.37195 824.16585 197.85251 823.05106 199.66531 822.87478 C 201.57589 822.61518 203.52609 822.77398 205.40625 823.15625 C 207.27856 823.95432 208.28126 825.91645 210.09263 826.81662 C 212.30766 828.17996 215.15577 828.1777 217.5625 827.34375 C 219.82093 826.39474 221.248 824.18805 223.51063 823.23518 C 224.80857 822.43992 225.89449 821.28357 227.34393 820.74916 C 229.16695 819.64243 231.16902 818.58883 232.29301 816.69345 C 233.59704 814.6763 234.76754 812.46722 234.99401 810.0377 C 235.42902 807.28423 235.67014 804.3721 234.62922 801.71741 C 233.53666 798.29292 231.32247 795.12079 228.1216 793.37725 C 226.09337 792.13896 223.71221 791.74437 221.38896 791.47883 C 217.55728 790.97589 213.63963 790.7624 209.81788 791.45334 C 206.02703 791.87841 202.18332 791.29446 198.41239 791.96046 C 194.89374 792.4158 191.29349 792.74446 187.96875 794.0625 C 187.06746 794.47282 186.23705 795.09284 185.28706 795.36394 C 183.65785 795.53038 182.20952 794.54416 180.63587 794.29665 C 177.51458 793.44282 174.30593 792.53344 171.03766 792.80623 C 168.35553 793.10777 165.64685 793.93333 162.94574 793.3079 C 160.62255 792.80971 158.29027 792.33997 155.91754 792.1502 C 153.32784 791.85057 150.71415 792.11298 148.16195 792.58164 C 146.69373 792.78348 145.18662 792.31753 144.03679 791.39513 C 141.2636 789.66896 139.04614 786.93919 135.78125 786.09375 C 134.02542 785.73101 132.14724 786.23524 130.75 787.34375 C 129.73221 788.02713 128.31599 788.01022 127.30354 787.32799 C 125.8252 786.6467 124.3655 785.5617 122.65625 785.71875 z M 134.5 789.875 C 135.6517 790.02409 136.44971 791.19712 136.4375 792.3125 C 136.6878 793.54898 136.97141 794.85817 136.5625 796.09375 C 136.54382 797.14229 138.03309 797.45698 138.71875 796.84375 C 139.66803 796.51675 140.88016 797.28552 140.78125 798.34375 C 141.38633 799.21218 140.18808 800.42358 139.28125 799.96875 C 138.0985 799.93439 136.75072 800.13577 136 801.15625 C 136.38836 802.17144 136.98587 803.39761 136.34375 804.4375 C 135.98009 806.00272 136.62645 807.58435 136.3125 809.15625 C 136.14732 810.5723 136.54754 812.30683 137.96875 812.9375 C 138.94764 813.30563 140.02134 813.10634 141.03125 813.3125 C 142.14824 814.09747 141.61389 816.21122 140.21875 816.28125 C 138.25754 816.56064 136.0098 816.8649 134.3125 815.59375 C 132.31668 813.58858 131.85025 810.62758 131.75978 807.91627 C 131.6147 805.91309 131.55904 803.87372 132.03125 801.90625 C 132.06665 800.91979 131.06298 800.03978 130.09375 800.1875 C 129.29222 799.82215 128.2406 799.15252 128.46875 798.125 C 128.64079 797.11016 129.87972 796.88472 130.74531 796.9375 C 131.83094 796.88903 132.36286 795.60958 132.3125 794.65625 C 132.19824 792.99654 132.47029 791.02161 133.90625 789.96875 C 134.08942 789.85885 134.29617 789.86995 134.5 789.875 z M 121.25 789.9375 C 122.74598 790.36658 123.42258 792.12813 123.15625 793.5625 C 123.15726 794.62183 122.93015 795.7298 123.3125 796.75 C 124.25805 797.02938 125.27433 796.53426 126.1875 796.96875 C 127.22003 796.5589 128.40572 798.05237 127.59375 798.90625 C 127.02287 799.78152 125.85531 800.2913 124.84375 799.9375 C 123.75383 799.93929 123.26518 801.25938 123.46875 802.1875 C 123.38555 804.38292 123.06788 806.59232 123.40625 808.78125 C 123.3601 810.04028 123.02361 811.52172 123.9375 812.5625 C 124.80921 813.31496 126.05171 813.29721 127.125 813.125 C 128.19403 813.20945 129.11645 814.71801 128.25 815.5625 C 126.82344 816.75596 124.84834 816.4783 123.125 816.46875 C 121.23078 816.24111 119.38637 814.7426 119.28125 812.75 C 118.60767 809.78486 118.90788 806.7274 118.6875 803.71875 C 118.74537 802.75421 119.00804 801.61979 118.3125 800.8125 C 117.45197 800.17079 116.02346 800.24652 115.5625 799.125 C 114.93837 798.15048 115.98099 796.94616 117 796.9375 C 118.41032 796.77535 119.22647 795.28098 119.21875 793.96875 C 119.56944 792.53143 119.74287 790.76046 121.15625 789.9375 L 121.25 789.9375 z M 46.75 793.375 C 47.518253 793.42352 48.751413 793.50832 49.235926 794.08906 C 50.093703 794.20315 50.477521 794.97719 51.215698 795.06497 C 51.139229 795.87824 52.179853 795.83158 52.352294 796.44167 C 52.80329 797.201 53.341724 797.95718 53.875 798.625 C 54.652025 798.76987 53.919091 799.90629 54.625 800.34375 C 54.434148 801.26425 55.105746 801.95751 54.860098 802.75489 C 55.448966 803.88802 54.013171 804.46144 54.382823 805.60953 C 53.987804 806.46192 53.836075 807.40803 53.44526 808.3341 C 53.042746 809.07061 52.651866 809.88669 52.09375 810.5 C 51.387123 811.20941 50.864031 812.22798 49.864052 812.52617 C 48.999332 812.59159 48.32404 813.43231 47.410943 813.21875 C 46.314843 813.28573 45.514764 812.55137 44.545324 812.22344 C 43.724693 812.44512 42.911122 811.68564 42.21875 812.4375 C 41.33473 812.80459 40.961476 813.89339 40.055242 814.20675 C 39.202114 814.20766 38.255591 814.43881 37.40625 814.09375 C 36.928067 813.53719 36.062002 813.38561 35.5 812.8125 C 35.802608 812.04987 34.652243 811.46719 34.625 810.78125 C 35.73269 810.55696 34.57478 809.31152 34.96875 808.71875 C 34.716381 808.20998 34.904903 808.05091 35 807.5625 C 34.091645 807.5385 34.983138 806.47498 34.9375 806 C 35.194129 805.74745 34.742704 805.47706 35.25 805.375 C 35.435344 804.68127 35.259459 803.7182 35.96875 803.53125 C 35.673743 803.25234 36.473703 802.87254 36.25 802.375 C 36.817365 802.44212 36.684608 802.69616 36.78125 802.1875 C 36.322423 802.56129 36.907764 801.85854 36.995855 802.0236 C 37.395722 801.55945 36.901951 801.71929 37.625 801.625 C 37.055107 801.44975 36.837611 801.46487 37.21875 800.84375 C 37.211276 801.21041 37.793772 800.39614 37.932342 800.76823 C 38.504257 800.69069 39.322887 800.7929 38.75 800 C 39.198367 800.20983 39.515435 799.75458 40 799.8125 C 39.313816 799.64972 40.508381 799.36659 40.319553 799.32125 C 40.48153 798.66507 40.908165 798.92707 41.09375 799.34375 C 41.60687 799.36865 41.395634 799.36745 41.735926 799.00469 C 42.238503 798.91941 40.866387 798.96279 41.743895 798.75858 C 42.159208 799.01461 42.32252 799.21638 42.680006 799.10625 C 42.713495 798.88539 43.374473 799.08077 43.702418 799.09206 C 43.813137 799.3606 43.013781 798.93166 43.40625 799.46875 C 43.605659 799.76912 44.063323 798.98693 44.25 799.78125 C 44.590351 799.64836 44.959845 799.90817 44.75 799.5625 C 45.257723 799.6266 44.485775 799.6602 45.1875 799.875 C 45.311878 799.8231 45.29287 800.06213 45.75 800.03125 C 46.439352 800.17749 46.407343 799.89168 46.15625 800.5625 C 46.964659 800.11775 46.704326 801.40321 47.53125 801.71875 C 46.974885 801.92265 47.758239 803.33852 47.09375 802.625 C 46.859057 803.14603 46.552141 803.25185 47 803.625 C 47.258853 803.89558 46.508685 803.71581 46.464486 803.71449 C 46.200858 803.45055 46.210419 804.45335 46.6875 804.0625 C 46.705412 804.06904 47.369494 804.21967 47 804.4375 C 46.724828 804.23524 46.49804 804.08137 46.8125 804.46875 C 46.414431 804.12845 46.825333 805.24018 47.15625 804.84375 C 46.497206 805.18391 47.105908 805.8592 47.059448 806.47122 C 47.372967 806.95513 46.123466 807.10517 46.536773 808.07544 C 46.615892 808.47449 47.189113 808.67858 46.5 808.9375 C 46.512559 808.15858 46.47187 809.39803 46.15625 809 C 46.991501 809.28711 46.353209 809.8632 46.46875 810.46875 C 46.587097 810.87362 47.579335 811.78889 48.27407 811.84495 C 49.115206 811.70049 49.425316 810.77409 50.25 810.34375 C 50.670274 809.47349 50.936875 808.60669 51.40755 807.80321 C 51.731734 806.78144 52.066418 805.89941 51.799778 804.89348 C 52.097339 804.47951 51.31166 803.69909 52.125 803.71875 C 51.602229 803.15834 52.543093 801.71215 51.615489 801.80072 C 51.277578 801.40961 51.778274 801.04118 51.15625 800.78125 C 51.153341 800.19557 52.046811 799.59057 50.920611 799.53364 C 50.49091 799.32631 51.196493 798.77993 50.555242 798.98075 C 50.632551 798.93395 50.794445 798.14535 50.25 798.28125 C 50.576793 797.23327 49.136847 797.88649 48.660943 797.3125 C 48.335738 797.10779 48.321988 796.6119 48.058236 796.77699 C 47.4475 796.63778 48.348692 795.70914 47.71875 796.3125 C 47.411249 795.71176 47.392861 796.00084 47.03125 795.875 C 46.810929 796.39311 46.9313 795.44176 46.348864 795.936 C 45.972852 795.63924 45.848118 796.20292 45.683265 795.69371 C 44.937715 795.54662 46.019784 795.27187 45.21875 794.96875 C 44.96794 795.33528 44.869099 795.65546 44.375 795.34375 C 44.278681 796.18544 43.812952 794.93813 43.1875 795.3125 C 43.008958 794.54101 43.130729 796.27641 42.71875 795.78125 C 42.37024 796.20325 41.981159 795.0981 41.75 795.9375 C 41.51835 794.99202 41.228798 796.83437 40.84375 795.875 C 40.277711 796.1697 40.327686 796.36818 39.6875 796.53125 C 40.210825 796.0143 39.045373 795.55289 39.59375 796.21875 C 39.094825 795.83654 39.863726 796.83229 39.15625 796.28125 C 38.508432 796.33527 38.009572 796.83586 37.40625 797.09375 C 37.336453 797.83868 36.71954 796.91273 36.6875 797.65625 C 36.045849 796.8245 36.552484 798.8566 35.84375 798.03125 C 35.825134 798.66376 35.117509 798.84106 35.125 799.53125 C 35.283007 798.56676 34.382658 800.04191 34.34375 799.40625 C 34.283428 799.75783 34.498481 799.59438 34.28125 800.15625 C 34.261912 800.80075 33.929127 800.89598 33.0625 801.3125 C 33.083415 801.55761 32.809716 802.07352 32.65625 801.5625 C 32.55569 801.92481 32.860975 803.5257 32.1875 802.71875 C 32.68769 803.66562 31.591218 804.3422 31.625 805.0625 C 31.52986 805.88074 30.792235 806.50844 30.84375 807.375 C 30.5484 808.31889 31.413342 809.10428 31.111913 810.0211 C 30.7491 810.99219 30.932413 812.04342 31.59375 812.84375 C 32.196664 813.6871 32.071531 814.8572 32.922803 815.59499 C 33.90534 816.73135 35.304116 817.38767 36.65625 817.96875 C 37.908333 818.28957 39.220293 818.13352 40.5 818.1875 C 41.360002 818.16305 42.230148 817.978 43.017176 817.62969 C 43.930908 817.21205 44.780125 816.60562 45.676366 816.17065 C 46.417356 815.58895 47.692105 815.90909 47.8125 816.90625 C 47.991473 818.02284 46.834408 818.69237 46 819.15625 C 44.870815 819.73425 43.589755 819.94531 42.383751 820.31955 C 41.207521 820.64141 40.007404 820.21583 38.8125 820.375 C 37.372446 820.37129 35.920904 820.09502 34.566786 819.61421 C 33.302719 819.13825 32.044437 818.519 31.174708 817.45596 C 30.304674 816.5818 29.391923 815.62192 29.21875 814.34375 C 28.82973 813.41254 28.3448 812.51955 28.21875 811.5 C 27.95923 810.22255 28.090907 808.88271 28.535851 807.66449 C 28.651241 806.63773 27.892726 805.47998 28.696289 804.56655 C 29.265354 803.86041 29.759248 803.07017 29.875 802.15625 C 30.337589 801.25655 31.091261 800.5369 31.46875 799.59375 C 31.52514 798.60415 32.532414 797.98178 33.249245 797.34438 C 34.002734 796.71281 34.420117 795.7913 35.442645 795.5704 C 36.3128 794.95228 37.395154 794.82743 38.21875 794.15625 C 38.876373 793.97026 39.451234 793.89328 39.96875 793.78125 C 39.883787 793.34852 40.523892 793.39852 40.03125 793.875 C 40.596614 793.80556 41.245211 793.8396 41.858866 793.22157 C 42.83578 793.06068 43.805121 793.1558 44.827924 792.83127 C 45.590999 792.69065 46.199839 792.79844 46.75 793.375 z M 40.84375 795.875 C 41.24873 795.99504 41.129057 795.2445 40.84375 795.875 z M 43 795.40625 C 42.769819 794.8561 42.660855 795.95131 43 795.40625 z M 44.84375 799.8125 C 44.141323 799.82273 45.51802 800.07473 44.84375 799.8125 z M 45.15625 795.4375 C 45.361462 795.89109 44.985707 795.43241 45.15625 795.4375 z M 174.3125 796.65625 C 176.15728 796.90839 177.86341 797.76697 179.41582 798.75283 C 181.20965 800.06455 182.59393 802.02815 182.88046 804.26549 C 183.15742 805.676 183.28889 807.11008 183.5 808.53125 C 183.32617 809.71265 182.57189 810.70332 182.23098 811.83605 C 181.526 813.4064 179.98647 814.30663 178.59375 815.1875 C 176.20928 816.52569 173.29067 817.06564 170.65103 816.20345 C 168.34962 815.47272 166.07341 814.14268 164.875 811.96875 C 164.31483 811.02112 163.80322 810.02736 163.39639 809.00937 C 163.10213 807.96947 163.50114 806.89681 163.3125 805.84375 C 163.20627 804.46828 164.13931 803.34871 164.55474 802.1034 C 165.22418 800.57584 166.25297 799.14555 167.75 798.34375 C 169.68018 797.08328 172.07067 796.84017 174.3125 796.65625 z M 70.78125 796.75 C 72.864834 796.78417 74.962094 797.83561 76.03125 799.65625 C 76.826749 800.47045 78.199667 799.92375 78.71875 799.0625 C 80.235003 797.30745 82.704543 796.75532 84.9375 796.9375 C 87.611922 796.86925 89.907733 799.20376 90.25 801.78125 C 90.634681 804.14842 90.52177 806.56018 90.8125 808.9375 C 90.607659 811.03795 90.831725 813.17963 90.34375 815.25 C 89.794409 816.48025 87.769464 816.79885 87.0625 815.5625 C 85.781642 813.77526 86.088585 811.47364 86.09375 809.40625 C 86.284813 806.70563 86.292108 803.83232 85 801.375 C 83.82731 799.73389 81.303149 799.5014 79.75 800.71875 C 78.143576 801.7104 77.634969 803.75328 77.6875 805.53125 C 77.410996 808.83343 77.690311 812.22637 76.71875 815.4375 C 76.141098 816.57165 74.235861 816.69191 73.65625 815.5 C 72.483979 813.79748 72.804726 811.60948 72.75 809.65625 C 72.745777 806.91034 72.850415 804.06666 71.8125 801.46875 C 70.516502 799.59392 67.469026 799.37294 65.90625 801.03125 C 64.508888 802.27284 64.138266 804.22072 64.165213 806.00751 C 64.103158 809.08682 64.148138 812.20063 63.4375 815.21875 C 62.97185 816.21181 61.55944 816.82384 60.625 816.09375 C 59.302024 814.42389 59.790808 812.18442 59.596007 810.22346 C 59.67592 807.2159 59.435279 804.21189 59.5 801.20318 C 59.477875 800.149 59.521409 799.12444 59.873361 798.1546 C 60.247425 797.25468 61.033973 797.04007 61.96875 797.03125 C 63.075861 797.10977 63.546103 798.4943 64.6819 798.48181 C 65.510385 798.75172 66.317844 798.08776 67.035485 797.72496 C 68.208846 797.1911 69.47711 796.75114 70.78125 796.75 z M 105.4375 796.78125 C 107.49612 797.32336 109.64967 798.34999 110.68586 800.31415 C 111.65319 801.9177 111.27895 803.88229 111.85786 805.6075 C 112.36076 807.38697 111.71974 809.20672 111.84375 811.01248 C 111.86518 812.3454 111.82983 813.68505 111.59375 815 C 111.19752 815.94638 110.02608 816.66375 109.03125 816.1875 C 108.29869 815.65261 107.60248 814.33492 106.53554 814.85454 C 104.61929 815.53607 102.7091 816.67637 100.59891 816.36198 C 97.97248 816.12504 95.33672 814.35405 94.71875 811.6875 C 94.436868 809.36991 96.086903 807.21085 98.132258 806.29325 C 100.76429 804.93882 103.84897 805.09562 106.60101 804.137 C 107.73283 803.49379 107.56395 801.73931 106.58117 801.03587 C 105.25351 799.85894 103.33219 800.03177 101.70534 800.28283 C 100.37006 800.42676 99.024271 800.58517 97.75 801.03125 C 96.717995 801.1889 95.8753 800.06171 96.526279 799.18395 C 97.144504 798.29626 98.340567 798.1335 99.267787 797.69406 C 101.24909 797.03807 103.3544 796.76388 105.4375 796.78125 z M 154.53125 796.90625 C 156.2188 797.06745 157.96494 797.49974 159.28125 798.625 C 159.88105 799.45264 159.39756 801.01597 158.25 800.96875 C 156.1517 800.80761 153.95878 799.86489 151.90625 800.75 C 150.93002 801.22762 150.19095 802.11425 149.8125 803.125 C 149.12796 803.99644 148.07642 805.03667 148.46875 806.25 C 148.77676 807.15157 149.27401 808.08301 149.03125 809.0625 C 149.33843 811.27331 151.52583 812.81222 153.65135 812.97745 C 155.335 813.10069 156.95569 812.50638 158.625 812.40625 C 159.85234 812.70137 159.77896 814.70418 158.625 815.0625 C 156.13423 816.13138 153.30347 816.98021 150.61286 816.16626 C 148.0873 815.4919 145.81555 813.66101 144.94416 811.1505 C 143.8664 808.52385 143.57528 805.45627 144.60452 802.77002 C 145.66557 800.07584 148.10351 798.00336 150.90625 797.3125 C 152.08125 796.96317 153.30836 796.8237 154.53125 796.90625 z M 200.5 796.9375 C 201.56508 797.183 202.45001 797.84925 203.4375 798.28125 C 205.20775 799.69789 205.98986 801.9133 206.75 803.96875 C 206.87451 806.59457 206.87335 809.27335 206.18211 811.82598 C 205.46408 813.43078 203.94987 814.43213 202.6604 815.5389 C 201.66181 816.21622 200.37236 816.17059 199.21875 816.375 C 198.04712 816.42833 196.81505 816.2518 195.87702 815.49561 C 195.04341 814.87752 193.673 814.34746 192.84375 815.25 C 192.03497 816.20163 192.46257 817.54386 192.32594 818.67768 C 192.23485 820.29457 192.29752 822.10036 191.25 823.4375 C 190.36957 824.20911 188.87425 823.70778 188.46561 822.65748 C 187.59426 821.21528 188.11669 819.48601 188.28125 817.9375 C 188.23641 816.5842 187.72425 815.28546 187.83183 813.92046 C 187.82754 811.61449 187.46093 809.29555 187.85893 807.00532 C 187.96722 805.91346 187.66683 804.81263 187.9321 803.72528 C 188.13344 802.44259 187.93308 801.13718 187.9375 799.84375 C 187.65416 798.86798 187.94248 797.63621 189 797.28125 C 190.06991 796.9147 191.33216 797.32421 191.875 798.34375 C 192.69712 799.0517 193.92221 798.76047 194.6989 798.14586 C 196.50441 797.28805 198.50727 796.90888 200.5 796.9375 z M 221.78125 797 C 223.65 796.98676 225.75805 797.11051 227.1875 798.46875 C 227.98204 799.70162 229.47726 800.63571 229.5046 802.24176 C 229.67673 803.24923 230.69247 804.02502 230.41483 805.1189 C 230.23679 806.07211 230.28377 807.03578 230.375 807.99061 C 230.4708 808.97547 230.08413 809.88312 229.77995 810.79054 C 229.53625 811.82223 229.13179 812.89128 228.25147 813.54101 C 227.34872 814.50053 226.61135 815.75242 225.3125 816.21875 C 223.96257 816.28063 222.58531 816.90428 221.25 816.40625 C 220.06163 816.28606 219.00728 815.64295 218.125 814.875 C 217.31051 814.45331 215.97298 814.80023 215.90625 815.84375 C 215.96499 817.17627 215.50676 818.50559 215.75 819.84375 C 215.82944 821.04379 215.59112 822.33244 214.8125 823.28125 C 214.28021 823.97731 213.18347 824.03125 212.625 823.34375 C 211.87859 822.43841 211.90301 821.19794 211.5625 820.125 C 211.36437 819.29654 211.55217 818.46112 211.69927 817.66198 C 211.58146 816.47868 211.39003 815.28391 211.51749 814.09896 C 211.33827 811.96679 211.22311 809.80628 211.59375 807.6875 C 211.55271 806.47602 210.91071 805.33007 211.17209 804.09913 C 211.42994 802.17499 211.22202 800.20292 211.56419 798.29758 C 212.14099 797.0498 214.19003 796.54884 215.03125 797.78125 C 215.56924 798.66012 216.83349 799.20654 217.72501 798.51003 C 219.01802 797.87217 220.27874 796.9813 221.78125 797 z M 130.5625 797.4375 C 130.69128 797.5955 130.58968 797.15195 130.5625 797.4375 z M 129.09375 797.65625 C 129.07349 797.88178 129.26782 797.51575 129.09375 797.65625 z M 127 798.9375 C 127.11487 799.0516 127.11487 798.8234 127 798.9375 z M 34.625 799.21875 C 35.281125 799.39605 34.18296 798.70671 34.625 799.21875 z M 128.375 799.15625 C 128.62937 799.46104 128.1424 799.12187 128.375 799.15625 z M 40.40625 799.34375 C 40.609001 799.39147 40.455837 799.18012 40.40625 799.34375 z M 136.15625 799.71875 C 135.89441 800.08389 136.48538 799.57881 136.15625 799.71875 z M 196.75 799.75 C 194.10659 800.36665 192.06562 803.07748 192.4375 805.8125 C 192.65478 806.74437 192.01764 807.6429 192.42522 808.55077 C 192.71278 809.50061 193.20741 810.37508 193.5783 811.29135 C 194.22707 812.55235 195.67248 813.46754 197.11194 813.13579 C 198.22575 812.93902 199.37075 812.7554 200.43997 812.4093 C 201.02937 811.77695 201.04442 810.77591 201.67959 810.13881 C 202.38732 809.41862 201.95969 808.41715 202.34375 807.5625 C 202.63822 806.62965 201.75139 805.93374 201.875 805.03125 C 202.03186 804.14559 202.07957 803.13278 201.40625 802.4375 C 200.3789 801.01326 198.72018 800.17753 197.0625 799.71875 L 196.90625 799.71875 L 196.75 799.75 z M 173.1875 799.78125 C 171.53154 800.07664 169.63014 800.83907 169.09375 802.59375 C 168.42418 803.84421 167.98061 805.2954 168.29086 806.7138 C 168.34779 808.22337 168.02551 809.93944 169.03125 811.21875 C 170.52173 813.64008 174.06426 814.36604 176.46126 812.925 C 177.63103 811.94488 178.00595 810.3547 178.375 808.9375 C 178.86886 806.37574 178.54739 803.49373 176.875 801.40625 C 175.93833 800.38882 174.62413 799.57302 173.1875 799.78125 z M 46.4375 799.84375 C 46.778919 800.02215 45.986231 799.84309 46.4375 799.84375 z M 125.53125 799.90625 C 125.61965 800.05975 125.61965 799.75275 125.53125 799.90625 z M 135.625 800 C 135.68443 800.31095 135.71495 799.7376 135.625 800 z M 39.59375 800.09375 C 39.448395 800.59117 39.694179 799.84926 39.84375 800.4375 C 39.831383 800.28712 39.941472 799.75451 39.59375 800.09375 z M 219.75 800.0625 C 218.18449 800.32909 216.98396 801.61314 216.50496 803.08284 C 216.12943 803.8479 215.64724 804.76037 216.125 805.59375 C 216.51735 806.85441 216.32056 808.20195 216.5114 809.49495 C 216.52581 810.60715 216.89009 811.8966 218.00247 812.37195 C 219.1233 813.04221 220.42557 813.27008 221.65625 813.65625 C 222.48002 813.08071 223.42121 812.69418 224.25 812.125 C 224.66639 811.21587 224.55383 810.02369 225.4375 809.375 C 226.10955 808.56678 224.94658 807.43328 225.71875 806.65625 C 226.28479 805.75653 225.26185 804.8409 225.5625 803.87969 C 225.36566 802.7464 224.40065 801.9793 223.875 801 C 223.23416 800.11329 222.12233 800.11398 221.1418 800.03918 C 220.67832 800.01496 220.21329 800.03827 219.75 800.0625 z M 76.84375 800.25 C 77.041443 800.30365 76.690704 800.08568 76.84375 800.25 z M 41.46875 801.03125 C 41.81708 801.09526 40.228687 801.72711 40.519299 801.35652 C 40.764908 801.1874 39.6939 801.35332 39.3125 801.6875 C 39.057407 801.69957 38.523811 802.31488 38.53125 801.71875 C 38.768068 802.36536 37.892308 802.29482 38.5625 802.6875 C 38.347466 802.57293 38.915093 802.96704 38.40625 803.15625 C 38.489239 803.21796 38.876914 802.8626 38.78125 803.46875 C 38.040365 803.38193 38.85501 803.96063 38.03125 803.9375 C 37.661812 803.36636 36.661498 804.72392 37.625 804.3125 C 36.920153 804.79442 38.161586 805.11108 37.21875 805.28125 C 37.783387 805.38879 37.675658 805.73284 37.28125 805.6875 C 37.957171 805.93058 37.777813 807.05909 37.4519 806.86387 C 37.201384 807.71751 37.288291 808.06996 37.605746 808.47601 C 37.629893 808.89571 37.341046 808.97637 37.46875 809.0625 C 37.797185 809.34881 36.989104 810.45862 37.71875 809.875 C 37.128107 810.54658 38.914416 810.43472 38.4375 810.90625 C 38.351775 811.53751 38.121929 811.77462 38.958554 811.68057 C 39.690427 811.89229 39.718859 810.78764 40.494769 811.35777 C 41.411529 811.72179 41.864523 810.7066 41.9375 809.9375 C 42.526 809.43423 42.601931 809.1855 42.78125 808.4375 C 42.84136 808.85886 43.134789 808.1946 43.406756 808.3747 C 43.674471 807.92965 43.713263 807.43251 43.91334 807.16255 C 44.007262 806.56633 43.726201 806.69853 43.511062 806.38081 C 43.767111 805.94884 43.917995 805.05453 43.883243 805.1829 C 43.730838 804.99384 43.264657 804.72521 43.71875 804.25 C 43.179759 804.27145 44.102135 804.09443 43.59375 804.5 C 44.031926 804.3764 43.74489 804.44458 44 803.875 C 44.169722 803.33753 44.523889 803.00104 44.070743 802.72335 C 43.763356 802.78215 44.73709 802.2762 43.950561 802.52046 C 43.120024 802.722 43.77097 802.47829 43.625 802.15625 C 43.41983 801.79849 42.24804 801.23305 42.102796 801.57091 C 41.50714 801.71837 42.070516 800.25274 41.46875 801.03125 z M 43.84375 804.5 C 43.504645 804.90573 44.267034 804.46291 43.84375 804.5 z M 38.5 802.03125 C 38.062642 801.65829 38.096891 802.11323 38.5 802.03125 z M 136.5 801.03125 C 136.57947 801.20296 136.32829 800.95178 136.5 801.03125 z M 158.53125 801.28125 C 158.61072 801.45296 158.35954 801.20178 158.53125 801.28125 z M 158.71875 801.4375 C 158.89522 801.81894 158.49481 801.41369 158.71875 801.4375 z M 181.90625 802.53125 C 182.05166 803.04886 181.91397 802.15084 181.90625 802.53125 z M 193.25 802.8125 C 193.18521 803.04875 193.05811 802.78505 193.25 802.8125 z M 47.3125 803.15625 C 47.676453 803.45135 46.85792 803.48193 47.25 803.125 C 46.760867 803.24345 47.321246 802.63672 47.3125 803.15625 z M 144.15625 803.375 C 144.15104 803.98988 143.67573 803.09073 144.15625 803.375 z M 163.84375 804.25 C 163.96592 803.82239 164.04756 803.53667 163.84375 804.25 z M 107.40625 803.96875 C 107.39342 804.20119 107.56623 803.74318 107.40625 803.96875 z M 131.28125 804.03125 C 131.09355 804.26338 131.32049 803.72567 131.28125 804.03125 z M 178.5 804.28125 C 178.6776 804.41109 178.4749 804.07274 178.5 804.28125 z M 106.75 804.53125 C 106.79764 804.72753 106.85737 804.38718 106.75 804.53125 z M 106.625 804.5625 C 106.6831 804.76672 106.79663 804.41406 106.625 804.5625 z M 136.71875 804.84375 C 136.8513 804.99357 136.58244 804.84417 136.71875 804.84375 z M 37 805.09375 C 37.153202 805.50236 37.245261 804.68966 37 805.09375 z M 225.59375 805.9375 C 225.31872 806.52623 225.76983 805.29356 225.59375 805.9375 z M 136.46875 805.78125 C 136.62335 806.05839 136.26932 805.76302 136.46875 805.78125 z M 136.84375 805.84375 C 136.87302 806.08983 136.62234 805.57845 136.84375 805.84375 z M 37.5 806.59375 C 37.799885 806.4778 37.673903 806.43736 37.5 806.59375 z M 188.25 806.6875 C 188.21546 807.20961 188.35125 806.32082 188.25 806.6875 z M 105.75 806.9375 C 104.56952 807.30832 103.12785 806.80667 102.125 807.6875 C 101.50032 808.74623 99.743168 808.27728 99.28125 809.5 C 98.627125 810.98883 99.491807 812.86547 100.96875 813.46875 C 101.81636 814.15295 102.90007 813.34007 103.84375 813.59375 C 104.80909 813.47397 105.97445 813.06184 106.21875 812 C 106.92309 811.22165 107.31459 810.17357 107.28125 809.125 C 107.83094 808.1302 106.89304 806.71159 105.75 806.9375 z M 206.5625 807.15625 C 206.73108 807.54409 206.73738 806.89927 206.5625 807.15625 z M 225.8125 807.25 C 225.9009 807.4035 225.9009 807.0965 225.8125 807.25 z M 225.875 807.4375 C 226.05861 807.3885 225.44714 807.15654 225.875 807.4375 z M 104.1875 807.46875 C 104.1922 807.73909 103.95975 807.13021 104.1875 807.46875 z M 101.75 807.90625 C 101.85515 807.82818 101.69189 807.73432 101.75 807.90625 z M 101.53125 808 C 101.66756 807.99958 101.3987 807.85018 101.53125 808 z M 107.53125 808.3125 C 107.5013 808.59936 107.70486 808.18084 107.53125 808.3125 z M 163.5 808.71875 C 163.60656 808.60769 163.43804 808.41881 163.5 808.71875 z M 163.59375 808.90625 C 163.65185 809.11047 163.76538 808.75781 163.59375 808.90625 z M 85.71875 809.25 C 85.731576 809.48244 85.558773 809.02443 85.71875 809.25 z M 206.3125 809.5 C 206.17728 809.81295 206.62245 809.23831 206.3125 809.5 z M 99.53125 810.71875 C 99.684296 810.88307 99.333557 810.6651 99.53125 810.71875 z M 164.15625 811.84375 C 164.24499 812.43184 163.67297 811.69249 164.15625 811.84375 z M 155.5625 812.59375 C 155.84196 812.75563 154.9218 812.51015 155.5625 812.59375 z M 106.28125 813.125 C 106.36908 812.86151 106.35455 812.90509 106.28125 813.125 z M 199 813.03125 C 199.11796 813.60574 199.34952 812.62084 199 813.03125 z M 220.90625 812.96875 C 220.94838 813.33154 220.59368 812.81746 220.90625 812.96875 z M 160.03125 813.28125 C 160.03595 813.55159 159.8035 812.94271 160.03125 813.28125 z M 197.1875 813.3125 C 197.2759 813.466 197.2759 813.159 197.1875 813.3125 z M 102.46875 813.90625 C 102.58675 814.04284 102.51611 813.78847 102.46875 813.90625 z M 107.78125 815.21875 C 107.78032 815.39572 107.6351 815.14723 107.78125 815.21875 z "
             inkscape:connector-curvature="0"
             sodipodi:nodetypes="ccscccccccccccscsccccsssscccccccccccccccccscccccccccccscscscccsccsccssscccccccccccsccccccscccccccccccccccccscscscccsccsccssscccccccccccsccccccscccccccccccccccccccsccccccccsccccccccccccccccccccccccccccccccccccccccccscccccccccccccccccccccccscccscccccssccscccsccccccccccccccccccccccscccscccccssccscccscccccccccccccccccccccccccccccsccccccccsccsscccccccccccccccccccccccccccccccsccccccscccccccccccssccccscccssccccccccccccccccccccccccccccccccsccccccccccccccccccccccccccccccccccccccccccccccccccccccccccccccccccccccccccccccccccccccccccccccccc" />
        </g>
      </g>
    </g>
  </g>
  <g
     inkscape:label="Layer 1"
     inkscape:groupmode="layer"
     id="layer1"
     style="display:inline"
     transform="translate(-38.286291,-778.30091)" />
</svg>
